<svg width="802" height="1032" viewBox="0 0 1065 1104" fill="none" xmlns="http://www.w3.org/2000/svg">
<path fill-rule="evenodd" clip-rule="evenodd" d="M629.495 522.273L629.021 523.204C629.531 522.202 630.02 521.133 630.519 520.041L630.52 520.041L630.52 520.04L630.52 520.04L630.52 520.04L630.52 520.04L630.52 520.04L630.52 520.04L630.52 520.04L630.52 520.04L630.52 520.04L630.52 520.04L630.52 520.039C631.042 518.899 631.575 517.733 632.156 516.591L633.105 514.729C632.057 517.245 630.824 519.666 629.495 522.273ZM528.663 703.615C528.616 703.708 528.639 703.778 528.661 703.848C528.684 703.918 528.707 703.989 528.66 704.082C528.739 705.765 528.819 707.447 528.618 709.222C528.57 709.315 528.569 709.431 528.568 709.548L528.568 709.592C528.553 709.686 528.536 709.781 528.519 709.875C528.561 709.793 528.566 709.694 528.568 709.592C528.903 707.54 528.827 705.492 528.663 703.615ZM377.225 941.983C377.413 942.076 377.877 942.079 378.156 941.988C377.978 941.986 377.827 941.999 377.698 942.01L377.697 942.01C377.49 942.027 377.34 942.039 377.225 941.983ZM385.163 941.57C385.056 941.605 384.962 941.612 384.883 941.619C384.755 941.63 384.662 941.637 384.603 941.749C384.7 941.565 384.979 941.476 385.163 941.57ZM395.355 939.959L395.357 939.959C396.406 939.733 397.455 939.508 398.528 939.236C396.378 939.781 394.229 940.326 392.174 940.685C393.25 940.412 394.302 940.185 395.355 939.959ZM528.102 692.302C528.054 692.396 528.077 692.466 528.1 692.536C528.123 692.606 528.145 692.677 528.098 692.77C528.142 693.144 528.163 693.448 528.183 693.752C528.204 694.055 528.225 694.359 528.269 694.733C528.348 694.206 528.248 693.433 528.16 692.761L528.16 692.76C528.139 692.6 528.119 692.446 528.102 692.302ZM528.449 695.529C528.426 695.459 528.404 695.389 528.451 695.295C528.454 695.385 528.457 695.474 528.46 695.564L528.454 695.546L528.449 695.53L528.449 695.529ZM528.46 695.564L528.465 695.72C528.483 695.661 528.474 695.612 528.46 695.564ZM528.476 696.106C528.467 695.991 528.457 695.877 528.447 695.763L528.451 695.754L528.455 695.747L528.458 695.739L528.462 695.728L528.465 695.72L528.471 695.927L528.476 696.106ZM528.824 701.349C528.573 699.682 528.528 698.026 528.485 696.449L528.476 696.106C528.547 696.983 528.601 697.892 528.656 698.801C528.707 699.66 528.759 700.518 528.824 701.349ZM528.824 701.349C528.863 701.606 528.906 701.864 528.956 702.121C528.77 702.027 528.865 701.84 528.865 701.84C528.85 701.678 528.837 701.514 528.824 701.349ZM528.637 718.38C528.745 715.987 528.853 713.593 528.721 711.278C528.722 711.257 528.721 711.237 528.717 711.218C528.711 711.113 528.705 711.009 528.697 710.904C528.65 710.997 528.673 711.068 528.696 711.138C528.704 711.164 528.713 711.19 528.717 711.218L528.721 711.278C528.719 711.307 528.711 711.338 528.694 711.372C528.744 712.805 528.71 714.403 528.677 716.002L528.677 716.003L528.677 716.003L528.677 716.004L528.677 716.005C528.66 716.804 528.643 717.602 528.637 718.38ZM527.667 732.168C528.256 727.604 528.517 723.028 528.637 718.38C528.58 719.642 528.499 720.949 528.418 722.257C528.338 723.565 528.257 724.873 528.2 726.134C528.196 726.601 528.146 727.045 528.096 727.488C528.045 727.932 527.995 728.376 527.991 728.843C527.891 729.73 527.814 730.57 527.737 731.411C527.714 731.663 527.691 731.915 527.667 732.168ZM527.667 732.168C527.581 732.834 527.488 733.5 527.388 734.165L527.482 733.979C527.553 733.358 527.612 732.76 527.667 732.168ZM517.628 785.965L517.818 785.592C517.746 785.733 517.681 785.872 517.621 786.008C517.623 785.994 517.626 785.979 517.628 785.965ZM517.621 786.008C517.568 786.322 517.454 786.657 517.34 786.991C517.22 787.34 517.1 787.69 517.051 788.017C517.135 787.462 517.287 786.773 517.621 786.008ZM520.422 775.424L520.327 775.61C520.294 775.754 520.263 775.893 520.234 776.027C520.167 776.33 520.105 776.613 520.026 776.891C519.907 777.263 519.781 777.601 519.655 777.848C519.823 777.519 519.936 777.208 520.026 776.891C520.176 776.419 520.314 775.893 520.422 775.424ZM525.503 750.773C525.509 750.726 525.533 750.68 525.573 750.601L525.573 750.601L525.516 750.894C525.503 750.844 525.499 750.808 525.503 750.773ZM525.516 750.894C525.527 750.938 525.545 750.993 525.569 751.068C525.47 751.722 525.348 752.422 525.226 753.122L525.225 753.123C525.103 753.822 524.981 754.522 524.882 755.175C524.981 753.691 525.243 752.29 525.516 750.894ZM527.171 737.809C527.156 738.04 527.136 738.269 527.114 738.497C527.134 738.268 527.153 738.039 527.171 737.809ZM526.682 742.255C526.851 741.015 527.001 739.765 527.114 738.497C527.06 739.051 526.989 739.597 526.919 740.143C526.828 740.841 526.738 741.539 526.682 742.255ZM526.41 744.165L526.42 744.112C526.517 743.575 526.615 743.038 526.666 742.478C526.671 742.403 526.677 742.329 526.682 742.255C526.596 742.893 526.504 743.529 526.41 744.165ZM526.41 744.165C526.315 744.684 526.222 745.203 526.173 745.745C526.252 745.219 526.332 744.692 526.41 744.165ZM445.619 913.173C446.291 912.539 446.976 911.892 447.694 911.263C446.601 912.408 445.461 913.404 444.271 914.431C444.719 914.023 445.166 913.601 445.619 913.173ZM444.271 914.431C443.816 914.846 443.36 915.246 442.896 915.622C443.277 915.288 443.653 914.964 444.025 914.643L444.271 914.431ZM524.297 758.162C524.202 758.797 524.106 759.433 523.926 759.81C524.056 759.281 524.184 758.743 524.297 758.162ZM523.926 759.81C523.903 759.904 523.879 759.998 523.856 760.092L523.814 760.261L523.91 759.841L523.92 759.823L523.926 759.81ZM523.813 760.261L523.33 762.361C523.476 761.614 523.645 760.938 523.813 760.261ZM513.889 797.901L514.079 797.528C513.922 797.836 513.851 798.116 513.786 798.367C513.734 798.57 513.687 798.755 513.603 798.921C513.696 798.737 513.72 798.575 513.745 798.414C513.77 798.25 513.794 798.087 513.889 797.901ZM505.436 821.158C505.221 821.694 505.007 822.23 504.722 822.789L505.102 822.044C505.291 821.671 505.458 821.228 505.625 820.786C505.793 820.343 505.96 819.9 506.149 819.528C505.865 820.087 505.65 820.622 505.436 821.158ZM508.727 812.63C508.869 812.351 508.989 812.001 509.108 811.652L509.139 811.561C509.119 811.665 509.107 811.772 509.106 811.885L508.727 812.63ZM509.49 810.673C509.346 810.955 509.202 811.238 509.139 811.561C509.249 811.242 509.36 810.928 509.49 810.673ZM370.346 941.946L370.346 941.946L370.346 941.945L370.347 941.945L370.347 941.945L370.349 941.945L370.35 941.945C370.453 941.94 370.563 941.934 370.686 941.935C370.453 941.933 370.29 941.909 370.127 941.884C369.963 941.86 369.8 941.835 369.567 941.834C369.839 941.972 370.062 941.961 370.346 941.946ZM473.338 881.164C473.858 880.374 474.449 879.56 475.039 878.746C475.629 877.933 476.219 877.119 476.739 876.329L476.574 876.58L476.456 876.761C475.494 878.226 474.454 879.812 473.338 881.164ZM480.287 870.746C480.76 869.932 481.234 869.117 481.754 868.327C480.9 870.003 479.859 871.584 478.819 873.166C479.339 872.375 479.813 871.561 480.287 870.746ZM483.929 864.978C484.93 863.455 485.759 861.845 486.666 860.065C486.242 860.895 485.772 861.703 485.303 862.51L485.303 862.511C484.829 863.325 484.356 864.139 483.929 864.978ZM490.794 852.641C490.11 853.872 489.45 855.06 488.856 856.227C490.184 853.62 491.513 851.013 493.027 848.5C492.29 849.947 491.528 851.318 490.794 852.641Z" fill="url(#paint0_linear)"/>
<path d="M425.853 766.415C415.986 785.779 405.502 800.373 394.024 810.473C385.839 817.794 377.112 822.494 368.123 824.95C346.493 830.581 324.318 822.096 301.597 799.496L170.003 667.95L450.271 701.462L444.017 712.816C441.268 730.178 435.245 747.982 425.853 766.415Z" fill="url(#paint1_linear)"/>
<path d="M458.583 702.179L170.098 667.764L274.185 461.642L405.778 593.188C427.85 615.222 441.016 640.928 444.905 670.115L458.583 702.179Z" fill="url(#paint2_linear)"/>
<path d="M560.388 476.601C555.929 485.352 551.291 493.074 546.569 499.58C541.282 506.736 535.815 512.863 529.892 517.585C521.899 524.066 513.739 528.117 504.847 529.919C483.791 533.965 463.664 526.524 444.746 507.504L422.025 484.904L315.657 378.407L581.828 410.131C579.715 429.927 572.63 452.115 560.388 476.601Z" fill="url(#paint3_linear)"/>
<path d="M848.321 265.416L660.853 243.07L587.939 234.297L569.299 215.653L381.321 27.7025L641.704 58.8222L848.321 265.416Z" fill="url(#paint4_linear)"/>
<path d="M749.706 892.495C750.75 890.447 751.793 888.399 752.837 886.351C753.501 885.047 754.26 883.558 754.924 882.255C755.209 881.696 755.398 881.324 755.683 880.765C757.296 877.6 758.722 874.34 760.149 871.079C760.339 870.707 760.434 870.521 760.623 870.149L760.718 869.962C762.24 866.516 763.761 863.07 765.097 859.529C765.286 859.156 765.476 858.784 765.571 858.598C765.856 858.039 765.954 857.386 766.239 856.827C767.286 854.312 768.428 851.61 769.289 849C769.573 848.441 769.672 847.788 769.956 847.229C770.146 846.857 770.241 846.671 770.245 846.203C771.485 842.848 772.725 839.493 773.78 836.044L773.875 835.857C773.969 835.671 774.159 835.299 774.068 835.018C775.119 832.035 775.983 828.958 776.848 825.88C777.037 825.508 777.041 825.041 777.231 824.668C777.329 824.015 777.519 823.642 777.617 822.989C778.292 820.284 779.153 817.674 779.828 814.969C779.926 814.315 780.211 813.757 780.215 813.289C780.31 813.103 780.218 812.822 780.313 812.636C781.181 809.091 782.049 805.547 782.731 801.907C782.826 801.721 782.83 801.254 782.925 801.067C783.216 799.574 783.603 797.895 783.895 796.402C783.993 795.749 784.183 795.376 784.281 794.723C784.766 792.39 785.065 789.963 785.55 787.63C785.645 787.444 785.645 787.444 785.554 787.163C786.043 784.363 786.345 781.468 786.834 778.668C787.136 775.773 787.439 772.878 787.741 769.984C787.836 769.797 787.836 769.797 787.745 769.516C787.85 767.928 787.956 766.341 788.156 764.566C788.164 763.632 788.357 762.792 788.364 761.858C788.572 759.149 788.684 756.627 788.892 753.918C789.005 751.396 789.022 749.06 789.04 746.723C788.953 745.975 789.051 745.322 788.963 744.573C788.978 742.705 788.897 741.022 788.816 739.339C788.729 738.591 788.827 737.937 788.74 737.189C788.662 735.039 788.491 733.075 788.414 730.925C788.322 730.644 788.417 730.458 788.421 729.991L788.516 729.804C788.428 729.056 788.431 728.589 788.344 727.841C788.172 725.877 788.095 723.727 787.923 721.763C787.744 720.734 787.751 719.799 787.572 718.77C787.305 716.992 787.225 715.309 786.863 713.718C786.772 713.437 786.867 713.251 786.775 712.97C786.509 711.192 786.147 709.601 785.88 707.823C785.789 707.542 785.698 707.261 785.701 706.794C785.343 704.735 784.985 702.676 784.441 700.523C784.536 700.337 784.35 700.242 784.445 700.055C783.721 696.873 782.998 693.69 782.18 690.693C782.089 690.412 781.997 690.131 781.906 689.85C781.724 689.288 781.541 688.726 781.358 688.164C780.814 686.01 780.084 683.762 779.54 681.608C779.357 681.046 779.174 680.484 779.178 680.017C779.087 679.736 778.904 679.174 778.813 678.893C778.082 676.644 777.352 674.396 776.622 672.147C776.439 671.585 776.348 671.304 776.165 670.742L776.074 670.461C775.066 667.837 773.967 664.931 772.959 662.307C772.868 662.026 772.868 662.026 772.777 661.745C772.594 661.183 772.411 660.621 771.948 660.15C771.122 658.088 770.202 656.212 769.377 654.15C769.1 653.774 769.103 653.307 768.826 652.931C768.643 652.369 768.18 651.898 767.997 651.336C767.077 649.46 766.157 647.584 765.237 645.708C765.054 645.146 764.685 644.489 764.408 644.113C764.316 643.832 764.039 643.456 763.948 643.175C762.659 640.642 761.37 638.109 759.8 635.667C759.709 635.386 759.523 635.291 759.617 635.105C759.617 635.105 759.431 635.01 759.526 634.824L499.144 603.704C499.235 603.985 499.326 604.266 499.512 604.361C500.801 606.894 502.371 609.336 503.66 611.869C504.12 612.807 504.675 613.559 504.949 614.402C505.869 616.278 506.789 618.154 507.709 620.03C508.169 620.968 508.629 621.906 508.903 622.749C509.728 624.811 510.649 626.687 511.474 628.749C511.843 629.406 512.116 630.249 512.299 630.812C513.493 633.531 514.501 636.155 515.414 638.965C515.596 639.528 515.779 640.09 515.962 640.652C516.692 642.9 517.422 645.149 518.153 647.397C518.427 648.24 518.701 649.083 518.88 650.113C519.61 652.361 520.154 654.515 520.698 656.668C520.972 657.511 521.246 658.354 521.334 659.103C522.057 662.286 522.875 665.282 523.504 668.651C523.953 670.991 524.497 673.145 524.76 675.389C524.852 675.67 524.943 675.951 524.939 676.419C525.297 678.477 525.564 680.255 525.922 682.314C526.189 684.091 526.364 685.588 526.631 687.366C526.81 688.395 526.803 689.329 526.982 690.359C527.154 692.323 527.231 694.473 527.589 696.531C527.677 697.28 527.578 697.933 527.761 698.495C527.852 698.776 527.662 699.148 527.754 699.43C527.831 701.58 528.002 703.543 528.079 705.693C528.167 706.442 528.069 707.095 528.156 707.843C528.237 709.526 528.223 711.395 528.303 713.078C528.391 713.826 528.293 714.48 528.38 715.228C528.362 717.564 528.25 720.087 528.232 722.423C528.119 724.945 527.911 727.654 527.704 730.362C527.697 731.297 527.503 732.136 527.496 733.071C527.296 734.845 527.19 736.433 527.176 738.302C526.873 741.197 526.571 744.091 526.269 746.986C525.966 749.881 525.477 752.681 524.989 755.481C524.69 757.908 524.11 760.427 523.716 763.041C523.618 763.694 523.428 764.067 523.33 764.72C523.034 766.681 522.648 768.36 522.166 770.225C521.298 773.77 520.616 777.41 519.748 780.954C519.555 781.794 519.361 782.633 519.077 783.192C518.402 785.897 517.727 788.602 516.866 791.212C516.578 792.238 516.29 793.264 516.001 794.29C515.137 797.367 514.086 800.35 513.222 803.427C513.032 803.8 513.123 804.081 512.933 804.453C511.879 807.903 510.639 811.258 509.398 814.613C509.11 815.639 508.636 816.57 508.442 817.409C507.395 819.925 506.439 822.721 505.392 825.237C504.918 826.167 504.63 827.193 504.155 828.124C502.634 831.571 501.299 835.112 499.591 838.463C499.401 838.836 499.212 839.208 499.022 839.58C497.595 842.841 495.982 846.006 494.556 849.266C493.607 851.128 492.658 852.99 491.71 854.852C490.381 857.458 489.053 860.065 487.539 862.577C486.875 863.88 486.211 865.184 485.361 866.392C484.507 868.068 483.467 869.649 482.613 871.324C481.949 872.628 481.193 873.65 480.529 874.953C479.489 876.534 478.449 878.115 477.501 879.977C476.745 880.999 476.176 882.117 475.421 883.139C474.286 884.906 473.246 886.487 471.925 888.159C471.264 888.995 470.79 889.926 470.035 890.948C468.619 892.807 467.203 894.665 465.692 896.71C465.221 897.173 464.937 897.732 464.466 898.196C462.579 900.518 460.692 902.84 458.806 905.162C458.24 905.812 457.674 906.462 457.109 907.112C455.788 908.784 454.375 910.175 452.868 911.753C451.927 912.68 451.266 913.516 450.325 914.444C448.912 915.835 447.405 917.412 445.993 918.803C444.205 920.472 442.416 922.141 440.442 923.715C439.595 924.456 438.843 925.011 437.997 925.752C436.774 926.771 435.552 927.79 434.143 928.714C433.11 929.36 432.168 930.287 431.136 930.934C429.351 932.135 427.471 933.523 425.687 934.724C425.592 934.91 425.406 934.816 425.311 935.002C423.34 936.108 421.555 937.31 419.584 938.416C419.022 938.599 418.552 939.063 417.99 939.246C415.833 940.257 413.676 941.269 411.519 942.281C411.143 942.558 410.675 942.555 410.3 942.832C408.519 943.566 406.737 944.301 404.77 944.94C403.927 945.214 403.365 945.397 402.522 945.671C400.836 946.219 399.149 946.767 397.558 947.129C396.81 947.216 396.153 947.585 395.405 947.673C392.97 948.309 390.631 948.759 388.291 949.208C378.747 950.912 368.84 951.024 358.664 949.826L619.047 980.946C629.409 982.239 639.224 981.845 648.674 980.328C651.013 979.878 653.353 979.429 655.787 978.793C656.536 978.705 657.192 978.336 657.941 978.248C659.627 977.7 661.218 977.338 662.904 976.79C663.748 976.516 664.31 976.334 665.153 976.06C666.934 975.326 668.901 974.686 670.682 973.952C671.058 973.674 671.525 973.678 671.901 973.4L672.182 973.309C674.244 972.484 676.215 971.377 678.372 970.365C678.934 970.183 679.405 969.719 679.967 969.536C680.905 969.076 681.562 968.707 682.5 968.247C683.533 967.601 684.752 967.049 685.88 966.216C685.974 966.03 686.161 966.125 686.255 965.939C687.664 965.015 688.978 964.277 690.201 963.258C690.672 962.795 691.234 962.612 691.704 962.148C692.737 961.502 693.679 960.574 694.712 959.928C695.369 959.559 696.12 959.004 696.591 958.54C697.248 958.172 697.814 957.522 698.284 957.058C699.131 956.317 699.883 955.762 700.73 955.02C701.2 954.557 701.671 954.093 702.328 953.724C703.646 952.519 704.963 951.314 706.281 950.109C706.751 949.645 707.222 949.182 707.788 948.532C708.729 947.604 709.671 946.677 710.612 945.749C711.554 944.822 712.401 944.081 713.156 943.058C713.251 942.872 713.532 942.781 713.722 942.409C714.853 941.109 716.079 939.623 717.397 938.418C717.962 937.768 718.528 937.118 719.094 936.468C719.188 936.282 719.188 936.282 719.283 936.096C721.075 933.96 722.867 931.824 724.659 929.688L724.754 929.502C725.224 929.038 725.509 928.479 725.98 928.016C727.301 926.343 728.527 924.857 729.662 923.09C729.851 922.718 729.946 922.532 730.322 922.254C730.983 921.418 731.457 920.487 732.213 919.465C733.063 918.256 733.818 917.234 734.668 916.026C734.953 915.467 735.424 915.003 735.614 914.631C736.369 913.609 736.938 912.491 737.694 911.469C738.354 910.633 738.828 909.702 739.489 908.866C739.868 908.121 740.434 907.471 740.813 906.727C741.569 905.704 742.233 904.401 742.897 903.098C743.277 902.353 743.842 901.703 744.222 900.958C744.696 900.027 745.17 899.096 745.831 898.26C746.495 896.957 747.345 895.748 748.009 894.445C749.137 893.612 749.422 893.054 749.706 892.495Z" fill="url(#paint5_linear)"/>
<path d="M772.966 636.981L512.584 605.861C533.404 608.261 553.058 604.204 571.737 593.317C594.172 580.122 613.973 556.908 630.674 523.671C658.379 468.836 667.565 416.29 658.136 366.222C648.802 315.967 625.029 271.958 587.008 233.823L847.391 264.942C885.412 303.077 909.185 347.086 918.519 397.341C927.948 447.41 918.762 499.955 891.056 554.791C874.356 588.028 854.554 611.242 832.12 624.437C813.627 635.418 793.973 639.476 772.966 636.981Z" fill="url(#paint6_linear)"/>
<path d="M587.008 233.823L847.391 264.942C850.636 268.238 853.882 271.533 856.846 274.92L596.463 243.8C593.499 240.413 590.254 237.118 587.008 233.823Z" fill="url(#paint7_linear)"/>
<path d="M596.463 243.8L856.846 274.92C859.905 278.12 862.683 281.412 865.553 284.985L605.17 253.865C602.487 250.387 599.523 247 596.463 243.8Z" fill="url(#paint8_linear)"/>
<path d="M605.265 253.679L865.648 284.798C868.24 287.995 870.832 291.192 873.238 294.295L612.855 263.175C610.449 260.073 607.857 256.876 605.265 253.679Z" fill="url(#paint9_linear)"/>
<path d="M612.76 263.361L873.143 294.481C875.363 297.488 877.582 300.495 879.707 303.689L619.325 272.569C617.2 269.376 614.98 266.368 612.76 263.361Z" fill="url(#paint10_linear)"/>
<path d="M619.325 272.569L879.802 303.502C881.836 306.415 883.774 309.513 885.713 312.612L625.33 281.492C623.392 278.394 621.544 275.576 619.325 272.569Z" fill="url(#paint11_linear)"/>
<path d="M625.33 281.492L885.713 312.612C887.465 315.616 889.313 318.433 891.065 321.437L630.682 290.317C629.021 287.595 627.269 284.591 625.33 281.492Z" fill="url(#paint12_linear)"/>
<path d="M630.588 290.503L891.065 321.437C892.818 324.441 894.384 327.35 895.856 330.445L635.473 299.325C633.907 296.416 632.34 293.507 630.588 290.503Z" fill="url(#paint13_linear)"/>
<path d="M635.473 299.325L895.855 330.445C897.422 333.353 898.893 336.449 900.178 339.449L639.796 308.329C638.51 305.329 636.944 302.42 635.473 299.325Z" fill="url(#paint14_linear)"/>
<path d="M639.982 308.424L900.365 339.544C901.836 342.639 903.121 345.639 904.312 348.825L643.929 317.706C642.739 314.519 641.267 311.424 639.982 308.424Z" fill="url(#paint15_linear)"/>
<path d="M643.929 317.706L904.312 348.825C905.688 352.106 906.879 355.293 908.069 358.479L647.687 327.36C646.496 324.173 645.306 320.987 643.929 317.706Z" fill="url(#paint16_linear)"/>
<path d="M647.687 327.36L908.07 358.479C909.351 361.947 910.447 365.319 911.542 368.692L651.16 337.572C650.064 334.2 648.969 330.827 647.687 327.36Z" fill="url(#paint17_linear)"/>
<path d="M651.16 337.572L911.542 368.692C912.729 372.346 913.821 376.185 914.727 379.93L654.344 348.811C653.439 345.066 652.347 341.226 651.16 337.572Z" fill="url(#paint18_linear)"/>
<path d="M654.344 348.811L914.727 379.93C915.91 384.051 916.812 388.263 917.715 392.476L657.332 361.356C656.43 357.144 655.528 352.932 654.344 348.811Z" fill="url(#paint19_linear)"/>
<path d="M657.332 361.356L917.715 392.476C918.076 394.067 918.343 395.845 918.705 397.436C919.245 400.057 919.691 402.864 920.045 405.39L659.663 374.27C659.403 371.558 658.863 368.937 658.322 366.316C658.055 364.539 657.694 362.947 657.332 361.356Z" fill="url(#paint20_linear)"/>
<path d="M659.663 374.27L920.046 405.39C920.846 410.723 921.365 416.147 921.698 421.476L661.316 390.357C660.983 385.027 660.463 379.603 659.663 374.27Z" fill="url(#paint21_linear)"/>
<path d="M661.315 390.357L921.698 421.476C922.452 432.883 922.271 444.283 921.247 455.957L660.865 424.838C661.889 413.164 662.069 401.764 661.315 390.357Z" fill="url(#paint22_linear)"/>
<path d="M660.865 424.838L921.247 455.957C920.836 460.907 920.143 465.948 919.264 470.895L658.882 439.775C659.76 434.829 660.453 429.788 660.865 424.838Z" fill="url(#paint23_linear)"/>
<path d="M658.882 439.775L919.264 470.895C918.769 474.629 917.992 478.455 917.31 482.095L656.927 450.975C657.704 447.149 658.386 443.51 658.882 439.775Z" fill="url(#paint24_linear)"/>
<path d="M656.927 450.975L917.31 482.095C916.537 485.453 915.763 488.812 914.99 492.17L654.608 461.05C655.381 457.692 656.154 454.333 656.927 450.975Z" fill="url(#paint25_linear)"/>
<path d="M654.607 461.05L914.99 492.17C914.312 495.342 913.352 498.606 912.393 501.87L652.01 470.75C652.783 467.392 653.743 464.128 654.607 461.05Z" fill="url(#paint26_linear)"/>
<path d="M651.824 470.655L912.206 501.775C911.247 505.039 910.382 508.116 909.237 511.285L648.854 480.165C650 476.996 650.959 473.733 651.824 470.655Z" fill="url(#paint27_linear)"/>
<path d="M648.854 480.165L909.332 511.099C908.186 514.267 907.227 517.531 905.895 520.605L645.512 489.485C646.749 486.598 647.895 483.429 648.854 480.165Z" fill="url(#paint28_linear)"/>
<path d="M645.604 489.766L905.987 520.886C904.841 524.055 903.601 527.41 902.174 530.67L641.791 499.55C643.032 496.195 644.364 493.121 645.604 489.766Z" fill="url(#paint29_linear)"/>
<path d="M641.791 499.55L902.174 530.67C900.747 533.93 899.412 537.471 897.799 540.637L637.416 509.517C638.843 506.257 640.364 502.81 641.791 499.55Z" fill="url(#paint30_linear)"/>
<path d="M637.417 509.517L897.799 540.636C896.278 544.083 894.475 547.62 892.954 551.067L632.571 519.947C634.279 516.596 635.8 513.149 637.417 509.517Z" fill="url(#paint31_linear)"/>
<path d="M632.476 520.133L892.859 551.253C892.289 552.37 891.625 553.673 891.056 554.791C890.107 556.653 889.159 558.514 888.21 560.376L627.827 529.257C628.776 527.395 629.725 525.533 630.674 523.671C631.243 522.554 631.907 521.25 632.476 520.133Z" fill="url(#paint32_linear)"/>
<path d="M627.827 529.257L888.21 560.376C886.882 562.983 885.367 565.495 884.039 568.102L623.657 536.982C624.985 534.375 626.499 531.863 627.827 529.257Z" fill="url(#paint33_linear)"/>
<path d="M623.471 536.887L883.853 568.007C882.434 570.332 881.014 572.658 879.595 574.984L619.212 543.864C620.818 541.633 622.237 539.308 623.471 536.887Z" fill="url(#paint34_linear)"/>
<path d="M619.398 543.959L879.781 575.079C878.456 577.218 877.132 579.357 875.621 581.402L615.239 550.282C616.563 548.143 618.074 546.098 619.398 543.959Z" fill="url(#paint35_linear)"/>
<path d="M615.238 550.282L875.621 581.402C874.391 583.355 872.881 585.4 871.465 587.258L611.082 556.139C612.498 554.28 613.914 552.422 615.238 550.282Z" fill="url(#paint36_linear)"/>
<path d="M611.082 556.139L871.464 587.258C870.049 589.117 868.633 590.975 867.312 592.647L606.929 561.528C608.436 559.95 609.666 557.997 611.082 556.139Z" fill="url(#paint37_linear)"/>
<path d="M606.929 561.528L867.312 592.647C865.896 594.506 864.575 596.178 863.068 597.755L602.685 566.636C604.192 565.058 605.513 563.386 606.929 561.528Z" fill="url(#paint38_linear)"/>
<path d="M602.871 566.73L863.254 597.85C861.933 599.522 860.426 601.1 858.918 602.677L598.536 571.557C600.043 569.98 601.364 568.308 602.871 566.73Z" fill="url(#paint39_linear)"/>
<path d="M598.536 571.557L858.918 602.677C857.411 604.254 855.904 605.832 854.397 607.409L594.014 576.289C595.521 574.712 597.029 573.135 598.536 571.557Z" fill="url(#paint40_linear)"/>
<path d="M594.014 576.289L854.305 607.128C852.798 608.705 851.105 610.188 849.412 611.67L589.029 580.551C590.814 579.349 592.321 577.772 594.014 576.289Z" fill="url(#paint41_linear)"/>
<path d="M589.215 580.646L849.598 611.765C847.904 613.248 846.211 614.73 844.331 616.118L583.949 584.998C585.547 583.702 587.427 582.314 589.215 580.646Z" fill="url(#paint42_linear)"/>
<path d="M583.949 584.998L844.332 616.118C842.357 617.692 840.478 619.079 838.412 620.372L578.029 589.253C580 588.146 581.974 586.572 583.949 584.998Z" fill="url(#paint43_linear)"/>
<path d="M577.934 589.439L838.317 620.558C836.156 622.037 834.091 623.33 832.025 624.623C831.744 624.714 831.368 624.992 831.273 625.178L570.891 594.058C571.172 593.967 571.547 593.689 571.642 593.503C573.803 592.024 575.869 590.732 577.934 589.439Z" fill="url(#paint44_linear)"/>
<path d="M570.986 593.872L831.368 624.992C828.083 626.836 824.894 628.494 821.518 630.058L561.135 598.938C564.325 597.28 567.701 595.716 570.986 593.872Z" fill="url(#paint45_linear)"/>
<path d="M560.949 598.843L821.332 629.963C805.955 636.669 789.771 638.977 772.871 637.167L512.489 606.048C529.575 607.952 545.759 605.644 560.949 598.843Z" fill="url(#paint46_linear)"/>
<path fill-rule="evenodd" clip-rule="evenodd" d="M507.272 823.849C512.037 811.736 516.053 799.71 519.417 787.587C525.282 765.95 528.626 744.2 529.349 722.992C530.988 679.735 520.915 640.595 499.983 603.897C526.005 610.355 550.233 606.986 572.668 593.791C595.102 580.597 614.903 557.382 631.604 524.145L632.078 523.214C639.099 509.436 644.623 495.833 649.398 482.319C662.879 442.516 666.165 403.85 659.253 366.791C654.493 341.616 646.17 317.909 634.286 295.671C622.493 273.714 607.042 253.412 588.125 234.392L569.485 215.747L381.507 27.7974L48.0921 687.684L243.396 882.886C270.754 910.193 296.775 929.08 321.553 939.36C346.33 949.639 369.012 952.988 390.065 949.408C410.931 945.734 430.165 935.599 447.486 919.095C464.806 902.59 480.107 881.305 493.013 855.515C498.139 844.994 503.08 834.377 507.272 823.849ZM408.158 196.402L529.643 317.872C549.861 338.024 561.931 360.357 565.764 384.59C566.922 391.982 567.048 400.02 566.33 408.332C564.505 427.102 557.898 447.892 546.229 470.794C542.055 478.986 537.701 486.15 533.26 492.564L517.619 509.455C510.283 515.568 502.218 519.432 493.983 520.865C474.237 524.642 455.322 517.583 437.423 499.786L416.187 478.412L315.938 378.315L408.158 196.402ZM368.123 824.95C377.112 822.494 385.839 817.794 394.024 810.473C405.502 800.373 416.081 785.593 425.947 766.229C435.245 747.982 441.363 729.992 444.207 712.444C446.46 698.817 446.75 685.362 445.262 672.173C445.08 671.612 444.992 670.863 444.904 670.115L444.904 670.115C441.016 640.928 427.85 615.222 405.778 593.188L274.184 461.642L170.003 667.95L301.597 799.496C324.318 822.096 346.493 830.581 368.123 824.95Z" fill="url(#paint47_linear)"/>
<path d="M566.517 408.426L316.31 378.505L408.345 196.497L529.83 317.967C550.047 338.119 562.118 360.452 565.951 384.685C567.109 392.077 567.234 400.114 566.517 408.426Z" fill="url(#paint48_linear)"/>
<defs>
<linearGradient id="paint0_linear" x1="181.626" y1="1256.12" x2="312.509" y2="1318.42" gradientUnits="userSpaceOnUse">
<stop stop-color="#0D1CF1"/>
<stop offset="0.1213" stop-color="#0D1AE8"/>
<stop offset="0.3229" stop-color="#0C16CE"/>
<stop offset="0.58" stop-color="#0A0EA5"/>
<stop offset="0.8797" stop-color="#08046C"/>
<stop offset="0.9944" stop-color="#070054"/>
</linearGradient>
<linearGradient id="paint1_linear" x1="211.978" y1="255.92" x2="-145.118" y2="715.183" gradientUnits="userSpaceOnUse">
<stop stop-color="#043DF1"/>
<stop offset="0.109" stop-color="#0446ED"/>
<stop offset="0.2904" stop-color="#0360E0"/>
<stop offset="0.5217" stop-color="#0289CD"/>
<stop offset="0.7911" stop-color="#01C2B2"/>
<stop offset="0.9944" stop-color="#00F29B"/>
</linearGradient>
<linearGradient id="paint2_linear" x1="185.091" y1="669.707" x2="433.585" y2="682.919" gradientUnits="userSpaceOnUse">
<stop stop-color="#0D1CF1"/>
<stop offset="0.1213" stop-color="#0D1AE8"/>
<stop offset="0.3229" stop-color="#0C16CE"/>
<stop offset="0.58" stop-color="#0A0EA5"/>
<stop offset="0.8797" stop-color="#08046C"/>
<stop offset="0.9944" stop-color="#070054"/>
</linearGradient>
<linearGradient id="paint3_linear" x1="542.036" y1="283.438" x2="304.342" y2="453.31" gradientUnits="userSpaceOnUse">
<stop stop-color="#043DF1"/>
<stop offset="0.109" stop-color="#0446ED"/>
<stop offset="0.2904" stop-color="#0360E0"/>
<stop offset="0.5217" stop-color="#0289CD"/>
<stop offset="0.7911" stop-color="#01C2B2"/>
<stop offset="0.9944" stop-color="#00F29B"/>
</linearGradient>
<linearGradient id="paint4_linear" x1="-281.055" y1="-543.821" x2="-574.59" y2="103.776" gradientUnits="userSpaceOnUse">
<stop stop-color="#043DF1"/>
<stop offset="0.1088" stop-color="#0446ED"/>
<stop offset="0.2898" stop-color="#0360E0"/>
<stop offset="0.5207" stop-color="#0289CD"/>
<stop offset="0.7895" stop-color="#01C2B2"/>
<stop offset="0.9924" stop-color="#00F29B"/>
</linearGradient>
<linearGradient id="paint5_linear" x1="515.952" y1="630.526" x2="470.706" y2="932.523" gradientUnits="userSpaceOnUse">
<stop stop-color="#043DF1"/>
<stop offset="0.1088" stop-color="#0446ED"/>
<stop offset="0.2898" stop-color="#0360E0"/>
<stop offset="0.5207" stop-color="#0289CD"/>
<stop offset="0.7895" stop-color="#01C2B2"/>
<stop offset="0.9924" stop-color="#00F29B"/>
</linearGradient>
<linearGradient id="paint6_linear" x1="432.629" y1="-124.635" x2="402.424" y2="622.517" gradientUnits="userSpaceOnUse">
<stop stop-color="#043DF1"/>
<stop offset="0.1088" stop-color="#0446ED"/>
<stop offset="0.2898" stop-color="#0360E0"/>
<stop offset="0.5207" stop-color="#0289CD"/>
<stop offset="0.7895" stop-color="#01C2B2"/>
<stop offset="0.9924" stop-color="#00F29B"/>
</linearGradient>
<linearGradient id="paint7_linear" x1="-110.963" y1="-501.631" x2="-401.172" y2="149.006" gradientUnits="userSpaceOnUse">
<stop stop-color="#043DF1"/>
<stop offset="0.1088" stop-color="#0446ED"/>
<stop offset="0.2898" stop-color="#0360E0"/>
<stop offset="0.5207" stop-color="#0289CD"/>
<stop offset="0.7895" stop-color="#01C2B2"/>
<stop offset="0.9924" stop-color="#00F29B"/>
</linearGradient>
<linearGradient id="paint8_linear" x1="-95.3643" y1="-497.348" x2="-385.181" y2="153.643" gradientUnits="userSpaceOnUse">
<stop stop-color="#043DF1"/>
<stop offset="0.1088" stop-color="#0446ED"/>
<stop offset="0.2898" stop-color="#0360E0"/>
<stop offset="0.5207" stop-color="#0289CD"/>
<stop offset="0.7895" stop-color="#01C2B2"/>
<stop offset="0.9924" stop-color="#00F29B"/>
</linearGradient>
<linearGradient id="paint9_linear" x1="-82.3409" y1="-494.101" x2="-371.873" y2="157.147" gradientUnits="userSpaceOnUse">
<stop stop-color="#043DF1"/>
<stop offset="0.1088" stop-color="#0446ED"/>
<stop offset="0.2898" stop-color="#0360E0"/>
<stop offset="0.5207" stop-color="#0289CD"/>
<stop offset="0.7895" stop-color="#01C2B2"/>
<stop offset="0.9924" stop-color="#00F29B"/>
</linearGradient>
<linearGradient id="paint10_linear" x1="-69.2476" y1="-490.317" x2="-358.409" y2="161.264" gradientUnits="userSpaceOnUse">
<stop stop-color="#043DF1"/>
<stop offset="0.1088" stop-color="#0446ED"/>
<stop offset="0.2898" stop-color="#0360E0"/>
<stop offset="0.5207" stop-color="#0289CD"/>
<stop offset="0.7895" stop-color="#01C2B2"/>
<stop offset="0.9924" stop-color="#00F29B"/>
</linearGradient>
<linearGradient id="paint11_linear" x1="-58.333" y1="-487.394" x2="-347.216" y2="164.435" gradientUnits="userSpaceOnUse">
<stop stop-color="#043DF1"/>
<stop offset="0.1088" stop-color="#0446ED"/>
<stop offset="0.2898" stop-color="#0360E0"/>
<stop offset="0.5207" stop-color="#0289CD"/>
<stop offset="0.7895" stop-color="#01C2B2"/>
<stop offset="0.9924" stop-color="#00F29B"/>
</linearGradient>
<linearGradient id="paint12_linear" x1="-49.8505" y1="-485.565" x2="-338.585" y2="166.397" gradientUnits="userSpaceOnUse">
<stop stop-color="#043DF1"/>
<stop offset="0.1088" stop-color="#0446ED"/>
<stop offset="0.2898" stop-color="#0360E0"/>
<stop offset="0.5207" stop-color="#0289CD"/>
<stop offset="0.7895" stop-color="#01C2B2"/>
<stop offset="0.9924" stop-color="#00F29B"/>
</linearGradient>
<linearGradient id="paint13_linear" x1="-39.0933" y1="-482.151" x2="-327.463" y2="170.137" gradientUnits="userSpaceOnUse">
<stop stop-color="#043DF1"/>
<stop offset="0.1088" stop-color="#0446ED"/>
<stop offset="0.2898" stop-color="#0360E0"/>
<stop offset="0.5207" stop-color="#0289CD"/>
<stop offset="0.7895" stop-color="#01C2B2"/>
<stop offset="0.9924" stop-color="#00F29B"/>
</linearGradient>
<linearGradient id="paint14_linear" x1="-30.548" y1="-479.806" x2="-318.683" y2="172.691" gradientUnits="userSpaceOnUse">
<stop stop-color="#043DF1"/>
<stop offset="0.1088" stop-color="#0446ED"/>
<stop offset="0.2898" stop-color="#0360E0"/>
<stop offset="0.5207" stop-color="#0289CD"/>
<stop offset="0.7895" stop-color="#01C2B2"/>
<stop offset="0.9924" stop-color="#00F29B"/>
</linearGradient>
<linearGradient id="paint15_linear" x1="-21.3239" y1="-476.89" x2="-309.139" y2="175.891" gradientUnits="userSpaceOnUse">
<stop stop-color="#043DF1"/>
<stop offset="0.1088" stop-color="#0446ED"/>
<stop offset="0.2898" stop-color="#0360E0"/>
<stop offset="0.5207" stop-color="#0289CD"/>
<stop offset="0.7895" stop-color="#01C2B2"/>
<stop offset="0.9924" stop-color="#00F29B"/>
</linearGradient>
<linearGradient id="paint16_linear" x1="-13.0918" y1="-474.403" x2="-300.636" y2="178.619" gradientUnits="userSpaceOnUse">
<stop stop-color="#043DF1"/>
<stop offset="0.1088" stop-color="#0446ED"/>
<stop offset="0.2898" stop-color="#0360E0"/>
<stop offset="0.5207" stop-color="#0289CD"/>
<stop offset="0.7895" stop-color="#01C2B2"/>
<stop offset="0.9924" stop-color="#00F29B"/>
</linearGradient>
<linearGradient id="paint17_linear" x1="-3.46168" y1="-470.979" x2="-290.597" y2="182.404" gradientUnits="userSpaceOnUse">
<stop stop-color="#043DF1"/>
<stop offset="0.1088" stop-color="#0446ED"/>
<stop offset="0.2898" stop-color="#0360E0"/>
<stop offset="0.5207" stop-color="#0289CD"/>
<stop offset="0.7895" stop-color="#01C2B2"/>
<stop offset="0.9924" stop-color="#00F29B"/>
</linearGradient>
<linearGradient id="paint18_linear" x1="8.56852" y1="-466.06" x2="-277.934" y2="187.882" gradientUnits="userSpaceOnUse">
<stop stop-color="#043DF1"/>
<stop offset="0.1088" stop-color="#0446ED"/>
<stop offset="0.2898" stop-color="#0360E0"/>
<stop offset="0.5207" stop-color="#0289CD"/>
<stop offset="0.7895" stop-color="#01C2B2"/>
<stop offset="0.9924" stop-color="#00F29B"/>
</linearGradient>
<linearGradient id="paint19_linear" x1="21.2643" y1="-460.67" x2="-264.513" y2="193.907" gradientUnits="userSpaceOnUse">
<stop stop-color="#043DF1"/>
<stop offset="0.1088" stop-color="#0446ED"/>
<stop offset="0.2898" stop-color="#0360E0"/>
<stop offset="0.5207" stop-color="#0289CD"/>
<stop offset="0.7895" stop-color="#01C2B2"/>
<stop offset="0.9924" stop-color="#00F29B"/>
</linearGradient>
<linearGradient id="paint20_linear" x1="31.1761" y1="-456.729" x2="-254.069" y2="198.313" gradientUnits="userSpaceOnUse">
<stop stop-color="#043DF1"/>
<stop offset="0.1088" stop-color="#0446ED"/>
<stop offset="0.2898" stop-color="#0360E0"/>
<stop offset="0.5207" stop-color="#0289CD"/>
<stop offset="0.7895" stop-color="#01C2B2"/>
<stop offset="0.9924" stop-color="#00F29B"/>
</linearGradient>
<linearGradient id="paint21_linear" x1="55.123" y1="-444.283" x2="-228.202" y2="212.42" gradientUnits="userSpaceOnUse">
<stop stop-color="#043DF1"/>
<stop offset="0.1088" stop-color="#0446ED"/>
<stop offset="0.2898" stop-color="#0360E0"/>
<stop offset="0.5207" stop-color="#0289CD"/>
<stop offset="0.7895" stop-color="#01C2B2"/>
<stop offset="0.9924" stop-color="#00F29B"/>
</linearGradient>
<linearGradient id="paint22_linear" x1="147.354" y1="-390.122" x2="-125.148" y2="275.539" gradientUnits="userSpaceOnUse">
<stop stop-color="#043DF1"/>
<stop offset="0.1088" stop-color="#0446ED"/>
<stop offset="0.2898" stop-color="#0360E0"/>
<stop offset="0.5207" stop-color="#0289CD"/>
<stop offset="0.7895" stop-color="#01C2B2"/>
<stop offset="0.9924" stop-color="#00F29B"/>
</linearGradient>
<linearGradient id="paint23_linear" x1="75.0032" y1="-434.734" x2="-206.775" y2="223.293" gradientUnits="userSpaceOnUse">
<stop stop-color="#043DF1"/>
<stop offset="0.1088" stop-color="#0446ED"/>
<stop offset="0.2898" stop-color="#0360E0"/>
<stop offset="0.5207" stop-color="#0289CD"/>
<stop offset="0.7895" stop-color="#01C2B2"/>
<stop offset="0.9924" stop-color="#00F29B"/>
</linearGradient>
<linearGradient id="paint24_linear" x1="55.5168" y1="-446.014" x2="-228.162" y2="210.385" gradientUnits="userSpaceOnUse">
<stop stop-color="#043DF1"/>
<stop offset="0.1088" stop-color="#0446ED"/>
<stop offset="0.2898" stop-color="#0360E0"/>
<stop offset="0.5207" stop-color="#0289CD"/>
<stop offset="0.7895" stop-color="#01C2B2"/>
<stop offset="0.9924" stop-color="#00F29B"/>
</linearGradient>
<linearGradient id="paint25_linear" x1="50.786" y1="-448.295" x2="-233.244" y2="207.801" gradientUnits="userSpaceOnUse">
<stop stop-color="#043DF1"/>
<stop offset="0.1088" stop-color="#0446ED"/>
<stop offset="0.2898" stop-color="#0360E0"/>
<stop offset="0.5207" stop-color="#0289CD"/>
<stop offset="0.7895" stop-color="#01C2B2"/>
<stop offset="0.9924" stop-color="#00F29B"/>
</linearGradient>
<linearGradient id="paint26_linear" x1="49.0687" y1="-448.62" x2="-234.99" y2="207.452" gradientUnits="userSpaceOnUse">
<stop stop-color="#043DF1"/>
<stop offset="0.1088" stop-color="#0446ED"/>
<stop offset="0.2898" stop-color="#0360E0"/>
<stop offset="0.5207" stop-color="#0289CD"/>
<stop offset="0.7895" stop-color="#01C2B2"/>
<stop offset="0.9924" stop-color="#00F29B"/>
</linearGradient>
<linearGradient id="paint27_linear" x1="48.5479" y1="-448.063" x2="-235.391" y2="208.112" gradientUnits="userSpaceOnUse">
<stop stop-color="#043DF1"/>
<stop offset="0.1088" stop-color="#0446ED"/>
<stop offset="0.2898" stop-color="#0360E0"/>
<stop offset="0.5207" stop-color="#0289CD"/>
<stop offset="0.7895" stop-color="#01C2B2"/>
<stop offset="0.9924" stop-color="#00F29B"/>
</linearGradient>
<linearGradient id="paint28_linear" x1="49.201" y1="-446.63" x2="-234.469" y2="209.777" gradientUnits="userSpaceOnUse">
<stop stop-color="#043DF1"/>
<stop offset="0.1088" stop-color="#0446ED"/>
<stop offset="0.2898" stop-color="#0360E0"/>
<stop offset="0.5207" stop-color="#0289CD"/>
<stop offset="0.7895" stop-color="#01C2B2"/>
<stop offset="0.9924" stop-color="#00F29B"/>
</linearGradient>
<linearGradient id="paint29_linear" x1="50.3445" y1="-444.707" x2="-232.965" y2="212.01" gradientUnits="userSpaceOnUse">
<stop stop-color="#043DF1"/>
<stop offset="0.1088" stop-color="#0446ED"/>
<stop offset="0.2898" stop-color="#0360E0"/>
<stop offset="0.5207" stop-color="#0289CD"/>
<stop offset="0.7895" stop-color="#01C2B2"/>
<stop offset="0.9924" stop-color="#00F29B"/>
</linearGradient>
<linearGradient id="paint30_linear" x1="51.6251" y1="-442.478" x2="-231.26" y2="214.603" gradientUnits="userSpaceOnUse">
<stop stop-color="#043DF1"/>
<stop offset="0.1088" stop-color="#0446ED"/>
<stop offset="0.2898" stop-color="#0360E0"/>
<stop offset="0.5207" stop-color="#0289CD"/>
<stop offset="0.7895" stop-color="#01C2B2"/>
<stop offset="0.9924" stop-color="#00F29B"/>
</linearGradient>
<linearGradient id="paint31_linear" x1="53.2313" y1="-439.8" x2="-229.135" y2="217.726" gradientUnits="userSpaceOnUse">
<stop stop-color="#043DF1"/>
<stop offset="0.1088" stop-color="#0446ED"/>
<stop offset="0.2898" stop-color="#0360E0"/>
<stop offset="0.5207" stop-color="#0289CD"/>
<stop offset="0.7895" stop-color="#01C2B2"/>
<stop offset="0.9924" stop-color="#00F29B"/>
</linearGradient>
<linearGradient id="paint32_linear" x1="41.676" y1="-444.837" x2="-241.477" y2="212.015" gradientUnits="userSpaceOnUse">
<stop stop-color="#043DF1"/>
<stop offset="0.1088" stop-color="#0446ED"/>
<stop offset="0.2898" stop-color="#0360E0"/>
<stop offset="0.5207" stop-color="#0289CD"/>
<stop offset="0.7895" stop-color="#01C2B2"/>
<stop offset="0.9924" stop-color="#00F29B"/>
</linearGradient>
<linearGradient id="paint33_linear" x1="26.6253" y1="-452.014" x2="-257.636" y2="203.883" gradientUnits="userSpaceOnUse">
<stop stop-color="#043DF1"/>
<stop offset="0.1088" stop-color="#0446ED"/>
<stop offset="0.2898" stop-color="#0360E0"/>
<stop offset="0.5207" stop-color="#0289CD"/>
<stop offset="0.7895" stop-color="#01C2B2"/>
<stop offset="0.9924" stop-color="#00F29B"/>
</linearGradient>
<linearGradient id="paint34_linear" x1="17.1668" y1="-455.935" x2="-267.654" y2="199.476" gradientUnits="userSpaceOnUse">
<stop stop-color="#043DF1"/>
<stop offset="0.1088" stop-color="#0446ED"/>
<stop offset="0.2898" stop-color="#0360E0"/>
<stop offset="0.5207" stop-color="#0289CD"/>
<stop offset="0.7895" stop-color="#01C2B2"/>
<stop offset="0.9924" stop-color="#00F29B"/>
</linearGradient>
<linearGradient id="paint35_linear" x1="8.27684" y1="-459.517" x2="-277.04" y2="195.463" gradientUnits="userSpaceOnUse">
<stop stop-color="#043DF1"/>
<stop offset="0.1088" stop-color="#0446ED"/>
<stop offset="0.2898" stop-color="#0360E0"/>
<stop offset="0.5207" stop-color="#0289CD"/>
<stop offset="0.7895" stop-color="#01C2B2"/>
<stop offset="0.9924" stop-color="#00F29B"/>
</linearGradient>
<linearGradient id="paint36_linear" x1="0.934918" y1="-462.173" x2="-284.728" y2="192.504" gradientUnits="userSpaceOnUse">
<stop stop-color="#043DF1"/>
<stop offset="0.1088" stop-color="#0446ED"/>
<stop offset="0.2898" stop-color="#0360E0"/>
<stop offset="0.5207" stop-color="#0289CD"/>
<stop offset="0.7895" stop-color="#01C2B2"/>
<stop offset="0.9924" stop-color="#00F29B"/>
</linearGradient>
<linearGradient id="paint37_linear" x1="-6.49289" y1="-464.851" x2="-292.5" y2="189.524" gradientUnits="userSpaceOnUse">
<stop stop-color="#043DF1"/>
<stop offset="0.1088" stop-color="#0446ED"/>
<stop offset="0.2898" stop-color="#0360E0"/>
<stop offset="0.5207" stop-color="#0289CD"/>
<stop offset="0.7895" stop-color="#01C2B2"/>
<stop offset="0.9924" stop-color="#00F29B"/>
</linearGradient>
<linearGradient id="paint38_linear" x1="-12.3757" y1="-466.58" x2="-298.582" y2="187.621" gradientUnits="userSpaceOnUse">
<stop stop-color="#043DF1"/>
<stop offset="0.1088" stop-color="#0446ED"/>
<stop offset="0.2898" stop-color="#0360E0"/>
<stop offset="0.5207" stop-color="#0289CD"/>
<stop offset="0.7895" stop-color="#01C2B2"/>
<stop offset="0.9924" stop-color="#00F29B"/>
</linearGradient>
<linearGradient id="paint39_linear" x1="-18.3986" y1="-468.327" x2="-304.802" y2="185.701" gradientUnits="userSpaceOnUse">
<stop stop-color="#043DF1"/>
<stop offset="0.1088" stop-color="#0446ED"/>
<stop offset="0.2898" stop-color="#0360E0"/>
<stop offset="0.5207" stop-color="#0289CD"/>
<stop offset="0.7895" stop-color="#01C2B2"/>
<stop offset="0.9924" stop-color="#00F29B"/>
</linearGradient>
<linearGradient id="paint40_linear" x1="-22.9355" y1="-469.116" x2="-309.395" y2="184.863" gradientUnits="userSpaceOnUse">
<stop stop-color="#043DF1"/>
<stop offset="0.1088" stop-color="#0446ED"/>
<stop offset="0.2898" stop-color="#0360E0"/>
<stop offset="0.5207" stop-color="#0289CD"/>
<stop offset="0.7895" stop-color="#01C2B2"/>
<stop offset="0.9924" stop-color="#00F29B"/>
</linearGradient>
<linearGradient id="paint41_linear" x1="-28.3852" y1="-470.315" x2="-314.954" y2="183.567" gradientUnits="userSpaceOnUse">
<stop stop-color="#043DF1"/>
<stop offset="0.1088" stop-color="#0446ED"/>
<stop offset="0.2898" stop-color="#0360E0"/>
<stop offset="0.5207" stop-color="#0289CD"/>
<stop offset="0.7895" stop-color="#01C2B2"/>
<stop offset="0.9924" stop-color="#00F29B"/>
</linearGradient>
<linearGradient id="paint42_linear" x1="-34.2039" y1="-471.552" x2="-320.883" y2="182.234" gradientUnits="userSpaceOnUse">
<stop stop-color="#043DF1"/>
<stop offset="0.1088" stop-color="#0446ED"/>
<stop offset="0.2898" stop-color="#0360E0"/>
<stop offset="0.5207" stop-color="#0289CD"/>
<stop offset="0.7895" stop-color="#01C2B2"/>
<stop offset="0.9924" stop-color="#00F29B"/>
</linearGradient>
<linearGradient id="paint43_linear" x1="-39.5321" y1="-472.244" x2="-326.234" y2="181.521" gradientUnits="userSpaceOnUse">
<stop stop-color="#043DF1"/>
<stop offset="0.1088" stop-color="#0446ED"/>
<stop offset="0.2898" stop-color="#0360E0"/>
<stop offset="0.5207" stop-color="#0289CD"/>
<stop offset="0.7895" stop-color="#01C2B2"/>
<stop offset="0.9924" stop-color="#00F29B"/>
</linearGradient>
<linearGradient id="paint44_linear" x1="-41.4243" y1="-470.49" x2="-327.784" y2="183.577" gradientUnits="userSpaceOnUse">
<stop stop-color="#043DF1"/>
<stop offset="0.1088" stop-color="#0446ED"/>
<stop offset="0.2898" stop-color="#0360E0"/>
<stop offset="0.5207" stop-color="#0289CD"/>
<stop offset="0.7895" stop-color="#01C2B2"/>
<stop offset="0.9924" stop-color="#00F29B"/>
</linearGradient>
<linearGradient id="paint45_linear" x1="-43.2955" y1="-467.789" x2="-329.137" y2="186.733" gradientUnits="userSpaceOnUse">
<stop stop-color="#043DF1"/>
<stop offset="0.1088" stop-color="#0446ED"/>
<stop offset="0.2898" stop-color="#0360E0"/>
<stop offset="0.5207" stop-color="#0289CD"/>
<stop offset="0.7895" stop-color="#01C2B2"/>
<stop offset="0.9924" stop-color="#00F29B"/>
</linearGradient>
<linearGradient id="paint46_linear" x1="-31.115" y1="-446.858" x2="-313.106" y2="210.987" gradientUnits="userSpaceOnUse">
<stop stop-color="#043DF1"/>
<stop offset="0.1088" stop-color="#0446ED"/>
<stop offset="0.2898" stop-color="#0360E0"/>
<stop offset="0.5207" stop-color="#0289CD"/>
<stop offset="0.7895" stop-color="#01C2B2"/>
<stop offset="0.9924" stop-color="#00F29B"/>
</linearGradient>
<linearGradient id="paint47_linear" x1="822.748" y1="493.832" x2="384.279" y2="132.611" gradientUnits="userSpaceOnUse">
<stop stop-color="#FF00FF"/>
<stop offset="0.0844378" stop-color="#F609FB"/>
<stop offset="0.225" stop-color="#DC21F1"/>
<stop offset="0.4043" stop-color="#B249E1"/>
<stop offset="0.6153" stop-color="#797FCA"/>
<stop offset="0.8504" stop-color="#30C4AE"/>
<stop offset="0.9944" stop-color="#00F29B"/>
</linearGradient>
<linearGradient id="paint48_linear" x1="200.32" y1="466.912" x2="672.881" y2="531.662" gradientUnits="userSpaceOnUse">
<stop stop-color="#0D1CF1"/>
<stop offset="0.1213" stop-color="#0D1AE8"/>
<stop offset="0.3229" stop-color="#0C16CE"/>
<stop offset="0.58" stop-color="#0A0EA5"/>
<stop offset="0.8797" stop-color="#08046C"/>
<stop offset="0.9944" stop-color="#070054"/>
</linearGradient>
</defs>
</svg>
