<svg width="720" height="930" viewBox="0 0 683 430" fill="none" xmlns="http://www.w3.org/2000/svg">
<path fill-rule="evenodd" clip-rule="evenodd" d="M103.302 218C81.1049 218.175 64.9361 245.2 57.2678 261.285C33.2037 311.751 30.82 374.018 36.7099 393C51.7311 381.511 83.4256 340.012 111.74 302.934C125.197 285.338 139.664 266.393 155 246.911C132.248 230.888 111.841 217.938 103.315 218H103.302ZM34.468 429.999H34.4554C21.7634 430.099 0.408708 422.201 0.00578861 368.274C-0.48527 306.311 30.2374 184.585 103.367 183.997H103.38C121.297 183.86 142.753 196.245 176.623 220.253C262.986 113.649 373.009 0.920717 486.871 0.00839563C548.216 -0.491506 599.374 21.3417 634.843 63.146C665.465 99.2139 682.564 148.379 682.992 201.581C683.786 300.075 623.562 405.254 510.354 406.154L510.064 371.998C601.905 371.261 649.273 285.852 648.58 201.856C648.215 156.59 634 115.148 608.54 85.1542C579.883 51.3858 537.903 33.7518 487.136 34.1642C387.967 34.9515 286.041 139.781 204.45 240.411C205.507 241.199 206.59 241.973 207.673 242.773C281.634 297.038 382.918 371.336 479.984 372.235L479.656 406.391C371.447 405.391 264.976 327.282 187.225 270.243C185.84 269.231 184.455 268.218 183.082 267.194C167.608 286.89 153.027 306.023 139.517 323.757C82.0377 399.18 57.7744 429.824 34.468 429.999Z" fill="black"/>
</svg>
